<svg xmlns="http://www.w3.org/2000/svg" viewBox="0 0 100 100" width="100" height="100">
  <title>PCS 储能变流器</title>
  <desc>v2 iso: 双开门立柜+液晶屏</desc>
  <g transform="translate(50.00 77.19) scale(0.6873)">
  <polygon points="39.8,-73.1 5.2,-53.1 5.2,-56.1 39.8,-76.1" fill="#b6bfcb" stroke="#5b6470" stroke-width="1.3" stroke-linejoin="round"/>
  <polygon points="-39.8,-79.1 5.2,-53.1 5.2,-56.1 -39.8,-82.1" fill="#d0d8e1" stroke="#5b6470" stroke-width="1.3" stroke-linejoin="round"/>
  <polygon points="-5.2,-102.1 39.8,-76.1 5.2,-56.1 -39.8,-82.1" fill="#e2e7ee" stroke="#5b6470" stroke-width="1.3" stroke-linejoin="round"/>
  <polygon points="34.6,-1.4 5.2,15.6 5.2,-56.1 34.6,-73.1" fill="#d9dfe8" stroke="#5b6470" stroke-width="1.3" stroke-linejoin="round"/>
  <polygon points="-34.6,-7.4 5.2,15.6 5.2,-56.1 -34.6,-79.1" fill="#eef1f6" stroke="#5b6470" stroke-width="1.3" stroke-linejoin="round"/>
  <polygon points="-5.2,-96.1 34.6,-73.1 5.2,-56.1 -34.6,-79.1" fill="#f8fafc" stroke="#5b6470" stroke-width="1.3" stroke-linejoin="round"/>
  <polygon points="-9.4,-89.5 -4.6,-86.8 -12.3,-82.3 -17.1,-85.1" fill="#2b3038"/>
  <polygon points="-2.7,-85.6 2.1,-82.9 -5.5,-78.4 -10.3,-81.2" fill="#2b3038"/>
  <polygon points="4.1,-81.7 8.9,-78.9 1.2,-74.5 -3.5,-77.3" fill="#2b3038"/>
  <polygon points="10.9,-77.8 15.7,-75.0 8.0,-70.6 3.2,-73.4" fill="#2b3038"/>
  <polygon points="30.5,-47.1 32.6,-47.1 32.6,-53.5 30.5,-53.5" fill="#a8b1bd"/>
  <text x="-14.8" y="-46.6" font-family="Arial,Helvetica,sans-serif" font-size="6.2" font-weight="700" fill="#cfe2ee" text-anchor="middle" dominant-baseline="central">PCS</text>
  <circle cx="-18.8" cy="-41.7" r="2.2" fill="#48e094" stroke="#0f7a42" stroke-width="0.9"/>
  <polygon points="30.5,-36.3 32.6,-36.3 32.6,-42.8 30.5,-42.8" fill="#a8b1bd"/>
  <polygon points="30.5,-25.5 32.6,-25.5 32.6,-32.0 30.5,-32.0" fill="#a8b1bd"/>
  <polygon points="39.8,3.0 5.2,23.0 5.2,18.6 39.8,-1.4" fill="#474f5a" stroke="#5b6470" stroke-width="1.3" stroke-linejoin="round"/>
  <polygon points="-39.8,-3.0 5.2,23.0 5.2,18.6 -39.8,-7.4" fill="#5b6470" stroke="#5b6470" stroke-width="1.3" stroke-linejoin="round"/>
  <polygon points="-5.2,-27.4 39.8,-1.4 5.2,18.6 -39.8,-7.4" fill="#6d7684" stroke="#5b6470" stroke-width="1.3" stroke-linejoin="round"/>
  <polygon points="30.5,-14.8 32.6,-14.8 32.6,-21.2 30.5,-21.2" fill="#a8b1bd"/>
  <polygon points="-18.6,5.2 -19.5,5.7 -19.5,0.1 -18.6,-0.4" fill="#96562a"/>
  <polygon points="-25.1,2.5 -19.5,5.7 -19.5,0.1 -25.1,-3.1" fill="#c8813c"/>
  <polygon points="-24.2,-3.6 -18.6,-0.4 -19.5,0.1 -25.1,-3.1" fill="#d99a55"/>
  <polygon points="-5.9,-35.8 -6.4,-35.5 -6.4,-47.7 -5.9,-48.0" fill="#1e232a" stroke="#5b6470" stroke-width="1.0" stroke-linejoin="round"/>
  <polygon points="-23.1,-45.2 -6.4,-35.5 -6.4,-47.7 -23.1,-57.4" fill="#2b3038" stroke="#5b6470" stroke-width="1.0" stroke-linejoin="round"/>
  <polygon points="-22.7,-57.6 -5.9,-48.0 -6.4,-47.7 -23.1,-57.4" fill="#3c434e" stroke="#5b6470" stroke-width="1.0" stroke-linejoin="round"/>
  <polygon points="-21.0,-54.4 -8.4,-47.1 -8.4,-38.5 -21.0,-45.8" fill="#0d131c"/>
  <polygon points="-15.4,-1.0 -15.8,-0.7 -15.8,-36.6 -15.4,-36.8" fill="#b6bfcb" stroke="#5b6470" stroke-width="1.0" stroke-linejoin="round"/>
  <polygon points="-33.7,-11.0 -15.8,-0.7 -15.8,-36.6 -33.7,-46.9" fill="#d0d8e1" stroke="#5b6470" stroke-width="1.0" stroke-linejoin="round"/>
  <polygon points="-33.3,-47.1 -15.4,-36.8 -15.8,-36.6 -33.7,-46.9" fill="#e2e7ee" stroke="#5b6470" stroke-width="1.0" stroke-linejoin="round"/>
  <polygon points="-30.8,-29.5 -18.7,-22.5 -18.7,-24.1 -30.8,-31.1" fill="#1e232a"/>
  <polygon points="-30.8,-34.5 -18.7,-27.5 -18.7,-29.1 -30.8,-36.1" fill="#1e232a"/>
  <polygon points="-30.8,-39.5 -18.7,-32.5 -18.7,-34.1 -30.8,-41.1" fill="#1e232a"/>
  <polygon points="-16.8,-16.6 -17.5,-16.2 -17.5,-21.6 -16.8,-22.0" fill="#a8b1bd"/>
  <polygon points="-19.1,-17.1 -17.5,-16.2 -17.5,-21.6 -19.1,-22.5" fill="#c2c9d3"/>
  <polygon points="-18.4,-22.9 -16.8,-22.0 -17.5,-21.6 -19.1,-22.5" fill="#d5dbe3"/>
  <polygon points="4.5,10.5 4.1,10.8 4.1,-25.1 4.5,-25.3" fill="#b6bfcb" stroke="#5b6470" stroke-width="1.0" stroke-linejoin="round"/>
  <polygon points="-13.8,0.5 4.1,10.8 4.1,-25.1 -13.8,-35.4" fill="#d0d8e1" stroke="#5b6470" stroke-width="1.0" stroke-linejoin="round"/>
  <polygon points="-13.3,-35.6 4.5,-25.3 4.1,-25.1 -13.8,-35.4" fill="#e2e7ee" stroke="#5b6470" stroke-width="1.0" stroke-linejoin="round"/>
  <polygon points="-10.9,-18.0 1.2,-11.0 1.2,-12.6 -10.9,-19.6" fill="#1e232a"/>
  <polygon points="-10.9,-23.0 1.2,-16.0 1.2,-17.6 -10.9,-24.6" fill="#1e232a"/>
  <polygon points="-10.9,-28.0 1.2,-21.0 1.2,-22.6 -10.9,-29.6" fill="#1e232a"/>
  <polygon points="-10.7,-13.1 -11.4,-12.7 -11.4,-18.1 -10.7,-18.5" fill="#a8b1bd"/>
  <polygon points="-13.0,-13.6 -11.4,-12.7 -11.4,-18.1 -13.0,-19.0" fill="#c2c9d3"/>
  <polygon points="-12.3,-19.4 -10.7,-18.5 -11.4,-18.1 -13.0,-19.0" fill="#d5dbe3"/>
  <polygon points="-8.3,11.2 -9.1,11.7 -9.1,6.1 -8.3,5.6" fill="#96562a"/>
  <polygon points="-14.7,8.5 -9.1,11.7 -9.1,6.1 -14.7,2.8" fill="#c8813c"/>
  <polygon points="-13.9,2.3 -8.3,5.6 -9.1,6.1 -14.7,2.8" fill="#d99a55"/>
  <polygon points="2.1,17.2 1.2,17.7 1.2,12.0 2.1,11.5" fill="#96562a"/>
  <polygon points="-4.4,14.5 1.2,17.7 1.2,12.0 -4.4,8.8" fill="#c8813c"/>
  <polygon points="-3.5,8.3 2.1,11.5 1.2,12.0 -4.4,8.8" fill="#d99a55"/>
  </g>
</svg>